<svg xmlns="http://www.w3.org/2000/svg" width="375" height="280" viewBox="0 0 375 280">
  <g id="Thinking" transform="translate(0 0)">
    <rect id="Rectangle_47" data-name="Rectangle 47" width="375" height="0.19" transform="translate(0 246.06)" fill="#ebebeb"/>
    <rect id="Rectangle_48" data-name="Rectangle 48" width="19.09" height="0.19" transform="translate(217.66 251.18)" fill="#ebebeb"/>
    <rect id="Rectangle_49" data-name="Rectangle 49" width="45.25" height="0.19" transform="translate(296.33 255.25)" fill="#ebebeb"/>
    <rect id="Rectangle_50" data-name="Rectangle 50" width="46.75" height="0.19" transform="translate(166.84 251.27)" fill="#ebebeb"/>
    <rect id="Rectangle_51" data-name="Rectangle 51" width="9.78" height="0.19" transform="translate(126.75 256.89)" fill="#ebebeb"/>
    <rect id="Rectangle_52" data-name="Rectangle 52" width="44.53" height="0.19" transform="translate(146.03 256.89)" fill="#ebebeb"/>
    <rect id="Rectangle_53" data-name="Rectangle 53" width="28.84" height="0.19" transform="translate(39.34 253.72)" fill="#ebebeb"/>
    <path id="Path_1891" data-name="Path 1891" d="M177.76,212.55H32.94a4.29,4.29,0,0,1-4.28-4.29V4.29A4.29,4.29,0,0,1,32.94,0H177.76A4.29,4.29,0,0,1,182,4.29v204a4.29,4.29,0,0,1-4.24,4.26ZM32.94.19a4.11,4.11,0,0,0-4.1,4.1v204a4.11,4.11,0,0,0,4.1,4.1H177.76a4.1,4.1,0,0,0,4.09-4.1V4.29a4.1,4.1,0,0,0-4.09-4.1Z" fill="#ebebeb"/>
    <path id="Path_1892" data-name="Path 1892" d="M340,212.55H195.16a4.29,4.29,0,0,1-4.28-4.29V4.29A4.29,4.29,0,0,1,195.16,0H340a4.29,4.29,0,0,1,4.28,4.29v204A4.29,4.29,0,0,1,340,212.55ZM195.16.19a4.1,4.1,0,0,0-4.09,4.1v204a4.1,4.1,0,0,0,4.09,4.1H340a4.11,4.11,0,0,0,4.1-4.1V4.29A4.11,4.11,0,0,0,340,.19Z" fill="#ebebeb"/>
    <path id="Path_1893" data-name="Path 1893" d="M146.97,180.89H97.17l-3.02-34.95h49.8Z" fill="#e6e6e6"/>
    <path id="Path_1894" data-name="Path 1894" d="M149.55,180.89H99.75l-3.02-34.95h49.8Z" fill="#f0f0f0"/>
    <path id="Path_1895" data-name="Path 1895" d="M106.56,173.38l-1.66-19.93h34.82l1.66,19.93Z" fill="#fff"/>
    <rect id="Rectangle_54" data-name="Rectangle 54" width="5.84" height="65.17" transform="translate(152.32 180.89)" fill="#e6e6e6"/>
    <rect id="Rectangle_55" data-name="Rectangle 55" width="4.06" height="65.17" transform="translate(155.95 180.89)" fill="#f0f0f0"/>
    <rect id="Rectangle_56" data-name="Rectangle 56" width="56.56" height="7.19" transform="translate(160.02 188.08) rotate(180)" fill="#f0f0f0"/>
    <rect id="Rectangle_57" data-name="Rectangle 57" width="5.84" height="57.98" transform="translate(99.61 188.08)" fill="#e6e6e6"/>
    <rect id="Rectangle_58" data-name="Rectangle 58" width="4.06" height="57.98" transform="translate(103.24 188.08)" fill="#f0f0f0"/>
    <rect id="Rectangle_59" data-name="Rectangle 59" width="5.84" height="57.98" transform="translate(58.02 188.08)" fill="#e6e6e6"/>
    <rect id="Rectangle_60" data-name="Rectangle 60" width="4.06" height="57.98" transform="translate(61.65 188.08)" fill="#f0f0f0"/>
    <rect id="Rectangle_61" data-name="Rectangle 61" width="5.84" height="57.98" transform="translate(115.35 188.08)" fill="#e6e6e6"/>
    <rect id="Rectangle_62" data-name="Rectangle 62" width="4.06" height="57.98" transform="translate(118.98 188.08)" fill="#f0f0f0"/>
    <rect id="Rectangle_63" data-name="Rectangle 63" width="45.44" height="7.19" transform="translate(58.02 180.89)" fill="#e6e6e6"/>
    <rect id="Rectangle_64" data-name="Rectangle 64" width="175.75" height="98.03" transform="translate(97.13 18.38)" fill="#e0e0e0"/>
    <rect id="Rectangle_65" data-name="Rectangle 65" width="184.51" height="98.03" transform="translate(98.02 18.38)" fill="#f5f5f5"/>
    <rect id="Rectangle_66" data-name="Rectangle 66" width="91.99" height="178.48" transform="translate(279.51 21.4) rotate(90)" fill="#fff"/>
    <path id="Path_1896" data-name="Path 1896" d="M173.3,113.39,207,21.4H151.38l-33.69,91.99Z" fill="#f5f5f5"/>
    <path id="Path_1897" data-name="Path 1897" d="M226.83,113.39l33.7-91.99H218.58l-33.7,91.99Z" fill="#f5f5f5"/>
    <rect id="Rectangle_67" data-name="Rectangle 67" width="14.94" height="93.63" transform="translate(313.64 152.43)" fill="#e6e6e6"/>
    <path id="Path_1898" data-name="Path 1898" d="M324.65,246.06h3.93v-7.21h-8.04Z" fill="#fafafa"/>
    <rect id="Rectangle_68" data-name="Rectangle 68" width="14.94" height="93.63" transform="translate(175.9 152.43)" fill="#e6e6e6"/>
    <rect id="Rectangle_69" data-name="Rectangle 69" width="141.17" height="91.68" transform="translate(187.41 152.43)" fill="#fafafa"/>
    <path id="Path_1899" data-name="Path 1899" d="M325.91,182H190.08V156.1H325.91Zm-135.08-.76H325.16V156.87H190.83Z" fill="#e6e6e6"/>
    <path id="Path_1900" data-name="Path 1900" d="M302,168.69H216.63c-4,0-7.78-3.2-10.47-8.79l-.26-.54H312.73l-.26.54C309.78,165.49,306,168.69,302,168.69Zm-94.89-8.57c2.53,5,6,7.82,9.52,7.82H302c3.54,0,7-2.84,9.53-7.82Z" fill="#e6e6e6"/>
    <path id="Path_1901" data-name="Path 1901" d="M191.34,246.06h-3.93v-7.21h8.05Z" fill="#fafafa"/>
    <path id="Path_1902" data-name="Path 1902" d="M325.91,211.22H190.08V185.33H325.91Zm-135.08-.75H325.16V186.08H190.83Z" fill="#e6e6e6"/>
    <path id="Path_1903" data-name="Path 1903" d="M302,197.9H216.63c-4,0-7.78-3.2-10.47-8.79l-.26-.54H312.73l-.26.54C309.78,194.7,306,197.9,302,197.9Zm-94.89-8.58c2.53,5,6,7.83,9.52,7.83H302c3.54,0,7-2.85,9.53-7.83Z" fill="#e6e6e6"/>
    <path id="Path_1904" data-name="Path 1904" d="M325.91,240.43H190.08v-25.9H325.91Zm-135.08-.75H325.16V215.29H190.83Z" fill="#e6e6e6"/>
    <path id="Path_1905" data-name="Path 1905" d="M302,227.11H216.63c-4,0-7.78-3.21-10.47-8.79l-.26-.54H312.73l-.26.54C309.78,223.9,306,227.11,302,227.11Zm-94.89-8.58c2.53,5,6,7.82,9.52,7.82H302c3.54,0,7-2.84,9.53-7.82Z" fill="#e6e6e6"/>
    <path id="Path_1906" data-name="Path 1906" d="M90.74,164.82v1.81H89.58l-.96,14.26H74.49l-.96-14.26H72.37v-1.81Z" fill="#e6e6e6"/>
    <path id="Path_1907" data-name="Path 1907" d="M86.09,129.45C84.93,121,73.49,118.53,59,118.22c-13.81-.3-18.23-5.19-18.23-5.19s0,19.82,19.94,27C79.58,146.84,87.25,138,86.09,129.45Z" fill="#e6e6e6"/>
    <path id="Path_1908" data-name="Path 1908" d="M79,148.69c.25-3.49,5.81-9.91,19.19-7,9.68,2.11,13.28-2.92,13.28-2.92s-.9,14.19-15.45,18.46C82.23,161.29,78.61,154.83,79,148.69Z" fill="#e6e6e6"/>
    <path id="Path_1909" data-name="Path 1909" d="M82.09,170.17a.51.51,0,0,0,.39-.18c1-1.15.18-3.9-.92-7.71-1.41-4.89-3.16-11-1.68-15.39a63.56,63.56,0,0,1,2.88-6.82c2.1-4.45,3.92-8.29,2.4-12.31a.533.533,0,0,0-1,.37c1.36,3.6-.29,7.09-2.37,11.5a63.691,63.691,0,0,0-2.93,6.93c-1.59,4.72.22,11,1.67,16,.85,3,1.74,6,1.12,6.76a.53.53,0,0,0,.06.73A.54.54,0,0,0,82.09,170.17Z" fill="#e6e6e6"/>
    <ellipse id="_Path_" data-name="&lt;Path&gt;" cx="145.42" cy="8.51" rx="145.42" ry="8.51" transform="translate(42.08 262.98)" fill="#f5f5f5"/>
    <path id="Path_1910" data-name="Path 1910" d="M187.47,230.02H80.97L75.14,58.41h106.5Z" fill="#407bff"/>
    <path id="Path_1911" data-name="Path 1911" d="M192.78,224.69H86.28L80.46,53.08h106.5Z" fill="#407bff"/>
    <path id="Path_1912" data-name="Path 1912" d="M192.78,224.69H86.28L80.46,53.08h106.5Z" fill="#fff" opacity="0.3"/>
    <ellipse id="Ellipse_9" data-name="Ellipse 9" cx="29.48" cy="30.5" rx="29.48" ry="30.5" transform="translate(92.992 100.735) rotate(-43.85)" fill="#407bff"/>
    <path id="Path_1913" data-name="Path 1913" d="M160.1,102.3a24,24,0,0,1-2.59,11.8,23.68,23.68,0,0,1-21.29,13,25.71,25.71,0,0,1-22.18-13,25.34,25.34,0,0,1-3.39-11.8,23.77,23.77,0,0,1,23.89-24.77A25.79,25.79,0,0,1,160.1,102.3Z" fill="#fff"/>
    <path id="Path_1914" data-name="Path 1914" d="M157.51,114.1a23.68,23.68,0,0,1-21.29,13,25.71,25.71,0,0,1-22.18-13,37.83,37.83,0,0,1,21.51-6.6,40,40,0,0,1,21.96,6.6Z" fill="#407bff" opacity="0.6"/>
    <ellipse id="Ellipse_10" data-name="Ellipse 10" cx="10.84" cy="11.21" rx="10.84" ry="11.21" transform="translate(119.511 93.256) rotate(-43.85)" fill="#407bff" opacity="0.6"/>
    <path id="Path_1915" data-name="Path 1915" d="M171.39,162.55H103.45L103,149.02h67.93Z" fill="#fff"/>
    <path id="Path_1916" data-name="Path 1916" d="M172.22,186.72H104.28l-.46-13.52h67.93Z" fill="#fff"/>
    <path id="Path_1917" data-name="Path 1917" d="M146,175.06l-16.37,2.23a1.15,1.15,0,0,0-1,1.35l2.15,11a1.33,1.33,0,0,0,1.46,1l16.37-2.23a1.14,1.14,0,0,0,1-1.36l-2.15-11a1.31,1.31,0,0,0-1.46-.99Zm-4.7,11.13-3,.41-.3-3.55a2.1,2.1,0,0,1-1.22-1.5,1.86,1.86,0,0,1,1.62-2.22,2.14,2.14,0,0,1,2.4,1.67,1.82,1.82,0,0,1-.58,1.74Z" fill="#407bff"/>
    <path id="Path_1918" data-name="Path 1918" d="M144.38,174.47h0a1.16,1.16,0,0,1-1.29-.91l-.21-1.08a6.18,6.18,0,0,0-6.47-4.93,5.29,5.29,0,0,0-4.85,6.31l.24,1.23a1,1,0,0,1-.87,1.21h0a1.16,1.16,0,0,1-1.29-.91l-.21-1a7.4,7.4,0,0,1,6-8.82A8.4,8.4,0,0,1,145,172l.24,1.23a1,1,0,0,1-.86,1.24Z" fill="#407bff"/>
    <path id="Path_1919" data-name="Path 1919" d="M161,205.66H116.78l-.3-8.8H160.7Z" fill="#407bff"/>
    <path id="Path_1920" data-name="Path 1920" d="M139.66,155.78a2.37,2.37,0,0,1-2.38,2.48,2.57,2.57,0,0,1-2.55-2.48,2.37,2.37,0,0,1,2.38-2.47A2.57,2.57,0,0,1,139.66,155.78Z" fill="#263238"/>
    <path id="Path_1921" data-name="Path 1921" d="M129,155.78a2.37,2.37,0,0,1-2.38,2.48,2.57,2.57,0,0,1-2.55-2.48,2.37,2.37,0,0,1,2.38-2.47,2.57,2.57,0,0,1,2.55,2.47Z" fill="#263238"/>
    <path id="Path_1922" data-name="Path 1922" d="M118.4,155.78a2.37,2.37,0,0,1-2.38,2.48,2.57,2.57,0,0,1-2.55-2.48,2.37,2.37,0,0,1,2.38-2.47A2.57,2.57,0,0,1,118.4,155.78Z" fill="#263238"/>
    <path id="Path_1923" data-name="Path 1923" d="M150.29,155.78a2.37,2.37,0,0,1-2.38,2.48,2.58,2.58,0,0,1-2.56-2.48,2.38,2.38,0,0,1,2.39-2.47,2.57,2.57,0,0,1,2.55,2.47Z" fill="#263238"/>
    <path id="Path_1924" data-name="Path 1924" d="M160.92,155.78a2.37,2.37,0,0,1-2.38,2.48,2.58,2.58,0,0,1-2.56-2.48,2.38,2.38,0,0,1,2.39-2.47,2.57,2.57,0,0,1,2.55,2.47Z" fill="#263238"/>
    <path id="Path_1925" data-name="Path 1925" d="M250.43,89.67c1,1.6,1.83,3.14,2.69,4.74s1.62,3.21,2.38,4.85a70.87,70.87,0,0,1,3.83,10.32c.13.45.23.92.34,1.38l.17.7.08.34.1.58a10.161,10.161,0,0,1-.24,3.87,22,22,0,0,1-2.33,5.6,44.5,44.5,0,0,1-6.67,8.77l-3.15-2.39a84.557,84.557,0,0,0,4.22-9.05,19.25,19.25,0,0,0,1.15-4.23,3.57,3.57,0,0,0-.06-1.33l-.3-.92c-.12-.37-.23-.75-.38-1.13a84.311,84.311,0,0,0-3.95-9.08c-1.48-3-3.11-6-4.72-8.88Z" fill="#ff8b7b"/>
    <path id="Path_1926" data-name="Path 1926" d="M248.43,127.35,245,129.18l4,4.65s2.47-1.68,2.58-4.24Z" fill="#ff8b7b"/>
    <path id="Path_1927" data-name="Path 1927" d="M240.35,132.05l4.24,3.37,4.35-1.59-3.96-4.65Z" fill="#ff8b7b"/>
    <path id="Path_1928" data-name="Path 1928" d="M225.86,65.09c-.08.41-.37.71-.64.65s-.43-.44-.34-.86.37-.71.64-.65A.643.643,0,0,1,225.86,65.09Z" fill="#263238"/>
    <path id="Path_1929" data-name="Path 1929" d="M225.53,65.8a15.28,15.28,0,0,1-2.72,3.2,2.46,2.46,0,0,0,1.92.78Z" fill="#ff5652"/>
    <path id="Path_1930" data-name="Path 1930" d="M224.18,80.55V75.62l6.51.79s-.11,4.23-3.75,5.48Z" fill="#ff8b7b"/>
    <path id="Path_1931" data-name="Path 1931" d="M226.05,72.07l4.58,1.32.09,3.02-6.51-.79Z" fill="#ff8b7b"/>
    <path id="Path_1932" data-name="Path 1932" d="M230.63,73.39l-4.58-1.32-.89,1.71a7.32,7.32,0,0,0,4.23,6.38,7.27,7.27,0,0,0,1.33-3.75Z" opacity="0.2"/>
    <path id="Path_1933" data-name="Path 1933" d="M227.86,63.08A.28.28,0,0,0,228,63a.24.24,0,0,0,0-.35,2.45,2.45,0,0,0-2.12-.83.25.25,0,0,0-.21.29.26.26,0,0,0,.29.2h0a2,2,0,0,1,1.68.68A.25.25,0,0,0,227.86,63.08Z" fill="#263238"/>
    <path id="Path_1934" data-name="Path 1934" d="M237.44,72.69c-.75,3.87-1.21,9.22,1.49,11.8,0,0-1.06,3.93-8.23,3.93-7.88,0-3.79-3.45-3.79-3.45,3.28-1,3.25-4.76,2.5-7.76Z" fill="#ff8b7b"/>
    <path id="Path_1935" data-name="Path 1935" d="M240.41,87.08c.7-1,.67-4.15-.08-4.7-1.21-.9-6.39-1.1-13.36.5a4.94,4.94,0,0,1-.86,4.65Z" fill="#407bff"/>
    <path id="Path_1936" data-name="Path 1936" d="M263.85,265.48a1.77,1.77,0,0,1-1.32-.07.54.54,0,0,1-.12-.59.57.57,0,0,1,.32-.36c.72-.34,2.35.32,2.42.35a.13.13,0,0,1,.08.11.14.14,0,0,1-.07.12A7,7,0,0,1,263.85,265.48Zm-.86-.85-.15.05a.34.34,0,0,0-.19.22c-.07.22,0,.29.05.32.28.24,1.33,0,2.07-.28a4.07,4.07,0,0,0-1.77-.31Z" fill="#407bff"/>
    <path id="Path_1937" data-name="Path 1937" d="M265.13,265.05h-.06c-.6-.18-1.87-1.08-1.89-1.68a.42.42,0,0,1,.32-.41.69.69,0,0,1,.56.05c.7.36,1.15,1.82,1.16,1.88a.11.11,0,0,1,0,.13Zm-1.49-1.87h-.06c-.15.05-.15.13-.15.16,0,.35.85,1.07,1.47,1.36a3,3,0,0,0-1-1.49.46.46,0,0,0-.26-.03Z" fill="#407bff"/>
    <path id="Path_1938" data-name="Path 1938" d="M224.9,266.37c-.68,0-1.33-.1-1.55-.4a.47.47,0,0,1,0-.55.59.59,0,0,1,.39-.29c.88-.24,2.73.81,2.8.86a.12.12,0,0,1,.07.12.13.13,0,0,1-.1.11A10,10,0,0,1,224.9,266.37Zm-.84-1a.879.879,0,0,0-.24,0,.34.34,0,0,0-.24.17c-.09.16-.06.24,0,.28.25.34,1.58.35,2.56.21a5.65,5.65,0,0,0-2.08-.69Z" fill="#407bff"/>
    <path id="Path_1939" data-name="Path 1939" d="M226.49,266.22h-.05c-.64-.29-1.9-1.43-1.8-2,0-.14.12-.31.46-.35a1,1,0,0,1,.7.22,3.6,3.6,0,0,1,.82,2,.14.14,0,0,1-.06.12Zm-1.29-2.14h-.07c-.22,0-.24.11-.24.14-.06.36.8,1.26,1.44,1.65a2.86,2.86,0,0,0-.69-1.63A.66.66,0,0,0,225.2,264.08Z" fill="#407bff"/>
    <path id="Path_1940" data-name="Path 1940" d="M232.29,266.09h-5.27l-.53-12.24h5.28Z" fill="#ff8b7b"/>
    <path id="Path_1941" data-name="Path 1941" d="M271.01,263.65l-5.15,1.12-5.18-11.4,5.15-1.12Z" fill="#ff8b7b"/>
    <path id="Path_1942" data-name="Path 1942" d="M265.36,264.25l5.79-1.26a.46.46,0,0,1,.52.26l2,4.37a.78.78,0,0,1-.56,1.08c-2,.41-3,.5-5.58,1.05-1.57.34-5.11,1.21-7.27,1.67s-2.91-1.61-2.07-2c3.79-1.74,5.37-3.26,6.39-4.68A1.25,1.25,0,0,1,265.36,264.25Z" fill="#263238"/>
    <path id="Path_1943" data-name="Path 1943" d="M227.05,265.48h5.76a.45.45,0,0,1,.45.36l1,4.7a.76.76,0,0,1-.75.94c-2.08,0-5.09-.16-7.7-.16-3,0-5.69.17-9.27.17-2.17,0-2.77-2.19-1.86-2.39,4.13-.91,7.5-1,11.06-3.21a2.45,2.45,0,0,1,1.31-.41Z" fill="#263238"/>
    <path id="Path_1944" data-name="Path 1944" d="M248.38,85.69c4.94,1.13,9,13.78,9,13.78l-9.93,7.58a21.66,21.66,0,0,1-5.27-9.77C240.5,90.66,243.32,84.53,248.38,85.69Z" fill="#407bff"/>
    <path id="Path_1945" data-name="Path 1945" d="M248.38,85.69c4.94,1.13,9,13.78,9,13.78l-9.93,7.58a21.66,21.66,0,0,1-5.27-9.77C240.5,90.66,243.32,84.53,248.38,85.69Z" opacity="0.4"/>
    <path id="Path_1946" data-name="Path 1946" d="M222.38,100.78c-1.24,1.34-2.47,2.52-3.74,3.74-.63.61-1.28,1.21-1.94,1.79l-1,.87-.25.22c-.12.1-.27.23-.43.35a6.47,6.47,0,0,1-1.45.86,4.84,4.84,0,0,1-1.82.38,4.365,4.365,0,0,1-4.25-3.24,5.069,5.069,0,0,1-.21-1.11,7.35,7.35,0,0,1,0-1.35,7.872,7.872,0,0,1,.14-1,18.518,18.518,0,0,1,.87-3,25.909,25.909,0,0,1,1.17-2.72c.47-1,.93-1.65,1.39-2.45a60.479,60.479,0,0,1,6.34-8.61,57.211,57.211,0,0,1,7.69-7.3l2.76,2.84c-1.94,2.6-3.85,5.39-5.61,8.13a90.326,90.326,0,0,0-4.8,8.45c-.32.71-.72,1.49-.95,2.08s-.5,1.34-.7,2a13.671,13.671,0,0,0-.43,1.89v.23a1.7,1.7,0,0,0-.09-.49,3.3,3.3,0,0,0-.87-1.4,3.55,3.55,0,0,0-1.23-.78,3.6,3.6,0,0,0-1.27-.23,3.17,3.17,0,0,0-1.21.23,2.12,2.12,0,0,0-.37.19l.29-.27.9-.82,1.79-1.69c1.19-1.12,2.39-2.31,3.51-3.42Z" fill="#ff8b7b"/>
    <path id="Path_1947" data-name="Path 1947" d="M244.14,95c2.68,2.66,3.56,7.51,3.77,11.73l-.44.33a21.66,21.66,0,0,1-5.27-9.77c-.1-.39-.19-.79-.26-1.18Z" opacity="0.2"/>
    <path id="Path_1948" data-name="Path 1948" d="M217.13,91c-1.08,5.71-1.75,17.43,1.38,40.66h28.21c.2-4.34-2.52-25.51,1.66-46a74.609,74.609,0,0,0-9.45-1.2,104.181,104.181,0,0,0-12,0c-1.33.12-2.63.32-3.78.52A7.49,7.49,0,0,0,217.13,91Z" fill="#407bff"/>
    <path id="Path_1949" data-name="Path 1949" d="M217.13,91c-1.08,5.71-1.75,17.43,1.38,40.66h28.21c.2-4.34-2.52-25.51,1.66-46a74.609,74.609,0,0,0-9.45-1.2,104.181,104.181,0,0,0-12,0c-1.33.12-2.63.32-3.78.52A7.49,7.49,0,0,0,217.13,91Z" opacity="0.4"/>
    <path id="Path_1950" data-name="Path 1950" d="M221.45,99.43l-5.1-1.23c-.16,3.1-.17,6.93.06,11.67C218.76,107.2,221.75,103,221.45,99.43Z" opacity="0.2"/>
    <path id="Path_1951" data-name="Path 1951" d="M226.49,253.86l.27,6.31h5.28l-.27-6.31Z" opacity="0.2"/>
    <path id="Path_1952" data-name="Path 1952" d="M265.84,252.25l-5.16,1.12,2.67,5.87,5.16-1.11Z" opacity="0.2"/>
    <path id="Path_1953" data-name="Path 1953" d="M240,67c-1.35,5.07-1.89,8.1-5,10.21-4.7,3.17-10.54-.47-10.72-5.84-.17-4.83,2.08-12.31,7.5-13.33A7.15,7.15,0,0,1,240,67Z" fill="#ff8b7b"/>
    <path id="Path_1954" data-name="Path 1954" d="M228.11,67.23c-.25-.68-1.42-5.92-.32-7.28s13.58-.38,15.43,1.44c3.06,3,.94,5.72-2.42,9.19-2.52,2.62-2.62,5.57-3.89,6-2.23.76-5.68,0-6.38-2.34S228.11,67.23,228.11,67.23Z" fill="#263238"/>
    <path id="Path_1955" data-name="Path 1955" d="M241.71,55.43c-4.42-1.88-12.69.2-17.16-.87a6.9,6.9,0,0,0,5.7,7,58.77,58.77,0,0,0,11.25,1C246.41,62.43,245.45,57,241.71,55.43Z" fill="#263238"/>
    <path id="Path_1956" data-name="Path 1956" d="M242.4,61.55a8.31,8.31,0,0,0,4.66-.9C247.89,62.65,243.35,63.2,242.4,61.55Z" fill="#263238"/>
    <path id="Path_1957" data-name="Path 1957" d="M230.52,67.43A5.94,5.94,0,0,1,229,70.94c-1.15,1.27-2.35.48-2.55-1.07-.18-1.39.19-3.73,1.6-4.43S230.61,65.87,230.52,67.43Z" fill="#ff8b7b"/>
    <path id="Path_1958" data-name="Path 1958" d="M228.52,131.65s6,40.39,9.27,55.52c3.6,16.57,22.9,71.4,22.9,71.4l9.44-2.05s-13.49-44.68-16.51-67.85c-2.32-17.79-6.9-57-6.9-57Z" fill="#407bff"/>
    <path id="Path_1959" data-name="Path 1959" d="M258.43,255.41l1.76,3.42,10.62-2.3-.89-3.2Z" fill="#263238"/>
    <path id="Path_1960" data-name="Path 1960" d="M232.3,146c6.92,1.36,6.19,27.22,5.36,40.53-2-9.41-4.92-27.5-6.92-40.34A2.34,2.34,0,0,1,232.3,146Z" opacity="0.3"/>
    <path id="Path_1961" data-name="Path 1961" d="M218.51,131.65s-.73,39.52-.15,55.63c.59,16.77,6.44,71.66,6.44,71.66h8.93s.33-53.91.73-70.38c.43-17.95,2.6-56.91,2.6-56.91Z" fill="#407bff"/>
    <path id="Path_1962" data-name="Path 1962" d="M223.08,255.38l.5,3.72h10.87l.3-3.32Z" fill="#263238"/>
    <path id="Path_1963" data-name="Path 1963" d="M228.19,92.72c2.53,6.83-12.33,14.88-12.33,14.88l-6.44-8.29s4.3-8.56,9.56-12.42C225.49,82.13,226.26,87.52,228.19,92.72Z" fill="#407bff"/>
    <path id="Path_1964" data-name="Path 1964" d="M228.19,92.72c2.53,6.83-12.33,14.88-12.33,14.88l-6.44-8.29s4.3-8.56,9.56-12.42C225.49,82.13,226.26,87.52,228.19,92.72Z" opacity="0.4"/>
    <ellipse id="Ellipse_11" data-name="Ellipse 11" cx="27.07" cy="17.28" rx="27.07" ry="17.28" transform="translate(259.34 6.3)" fill="#407bff"/>
    <path id="Path_1965" data-name="Path 1965" d="M276.63,32.28A7.58,7.58,0,0,1,269.19,26,7.68,7.68,0,0,1,275,17.28h0a7.55,7.55,0,0,1,8.12,3.4l17.37-3.6A2.73,2.73,0,0,1,303.65,19a2.63,2.63,0,0,1-.31,2.05,2.59,2.59,0,0,1-1.69,1.19l-.46.09a.44.44,0,0,0-.31.23.45.45,0,0,0,0,.39l.3.8a1.18,1.18,0,0,1-.46,1.44,1.48,1.48,0,0,0-.67,1.07,1.16,1.16,0,0,1-.9,1l-.36.07a1.16,1.16,0,0,1-1.24-.59A1.44,1.44,0,0,0,296,26a1.47,1.47,0,0,0-1.16,1.26,1.16,1.16,0,0,1-.9,1l-.35.07a1.15,1.15,0,0,1-1.24-.6,1.48,1.48,0,0,0-1.05-.71,1.18,1.18,0,0,1-1-1.14v-.86a.469.469,0,0,0-.56-.43l-5.53,1.14a7.57,7.57,0,0,1-6,6.31,7.35,7.35,0,0,1-1.58.24ZM275.14,18a6.91,6.91,0,0,0-5.21,7.83,6.83,6.83,0,0,0,13.51-.39v-.27l6.06-1.26a1.25,1.25,0,0,1,1,.24,1.19,1.19,0,0,1,.46.9v.86a.43.43,0,0,0,.35.43A2.21,2.21,0,0,1,293,27.43a.41.41,0,0,0,.44.24l.35-.07a.44.44,0,0,0,.31-.39,2.2,2.2,0,0,1,4.1-.85.43.43,0,0,0,.44.24l.36-.08a.41.41,0,0,0,.3-.39,2.19,2.19,0,0,1,1-1.61.44.44,0,0,0,.15-.54l-.3-.8a1.22,1.22,0,0,1,.07-1,1.25,1.25,0,0,1,.82-.61l.45-.09a1.86,1.86,0,0,0,1.21-.85,1.83,1.83,0,0,0,.22-1.46,2,2,0,0,0-2.31-1.33l-17.9,3.7-.13-.23A6.77,6.77,0,0,0,275.14,18Zm1.5,11.48a4.825,4.825,0,1,1,.98-.1h0a4.59,4.59,0,0,1-.98.12Zm0-8.87a4.07,4.07,0,0,0-4,4.88,4.061,4.061,0,0,0,4.75,3.16h0a4.07,4.07,0,0,0,1.41-7.38,4,4,0,0,0-2.13-.64Z" fill="#fff"/>
    <ellipse id="Ellipse_12" data-name="Ellipse 12" cx="8.9" cy="5.68" rx="8.9" ry="5.68" transform="translate(255.47 39.64)" fill="#407bff" opacity="0.6"/>
    <ellipse id="Ellipse_13" data-name="Ellipse 13" cx="3.65" cy="2.33" rx="3.65" ry="2.33" transform="translate(246.57 48.67)" fill="#407bff" opacity="0.3"/>
  </g>
</svg>
