<svg xmlns="http://www.w3.org/2000/svg" width="93.01" height="130.951" viewBox="0 0 93.01 130.951">
  <g id="Layer_2" data-name="Layer 2" transform="translate(-11 -0.029)">
    <g id="Layer_1" data-name="Layer 1" transform="translate(24)">
      <path id="Path_4" data-name="Path 4" d="M67.77,33.5c.91.86,1.73,1.61,2.51,2.39a13.16,13.16,0,0,1,1.41,1.57c1.44,2,3,3.84,4.24,5.95A27.9,27.9,0,0,1,80,58.69c-.26,9.54-5.75,18.15-13.78,20.63-4.75,1.47-9.21.5-13.38-2.43A25.36,25.36,0,0,1,46.31,70,58.15,58.15,0,0,1,39,53a120.171,120.171,0,0,1-2.93-14.6c0-.22,0-.45,0-.48,1,1.81,1.88,3.85,3,5.69,3.2,5,7.43,8.36,12.92,9,5.81.67,10.66-1.46,14-7.25a17.63,17.63,0,0,0,2-10A17.339,17.339,0,0,1,67.77,33.5Z" fill="#66bdd6"/>
      <path id="Path_5" data-name="Path 5" d="M29.51,33.64a42.542,42.542,0,0,0-4.08,3.24,18.55,18.55,0,0,0-6.05,14.23c.07,5.13,1.86,9.36,5.88,12a10.44,10.44,0,0,0,8.35,1.22l.45-.09-.52.89c-.16.25-.31.51-.48.76C30.36,70,27.2,73.6,23,75.7c-6.19,3.1-12.06,2.46-17.41-2.38C-.22,68.07-1.66,58.94,2,51.59a27.35,27.35,0,0,1,9.56-10.44A55.44,55.44,0,0,1,28.9,33.79Z" fill="#8c0001"/>
      <path id="Path_6" data-name="Path 6" d="M12.91,32.29a25.87,25.87,0,0,1-4.82-5.21,22.07,22.07,0,0,1-3.71-9C3.25,10.94,6.31,3.57,11.86,1A7.82,7.82,0,0,1,16.33.06a11.83,11.83,0,0,1,6.5,3.21c3.12,2.95,5.13,6.79,6.75,11a75.48,75.48,0,0,1,3.57,13.27,1.44,1.44,0,0,1,0,.21c-.77-1.31-1.47-2.73-2.36-4-2.29-3.21-5.19-5.27-8.92-5.28-5.79,0-9.8,5.37-9.15,12.16C12.77,31.12,12.84,31.65,12.91,32.29Z" fill="#fbb710"/>
      <path id="Path_7" data-name="Path 7" d="M35.81,13C37.82,10.2,40,8,43,7c5.81-2,11.33,3.07,11.14,9.5a11.16,11.16,0,0,1-3.39,7.66,21,21,0,0,1-9.51,5.29c-1.24.37-2.51.62-3.72.91a31.68,31.68,0,0,0,3-2.68A10.47,10.47,0,0,0,43,18.63C42.45,15.27,40,13,37,13Z" fill="#3da84e"/>
      <path id="Path_8" data-name="Path 8" d="M49.67,38.62c0-4.93,3.49-8.94,7.64-8.9,4,0,7.12,3.94,7.07,8.76s-3.5,8.77-7.75,8.72C52.77,47.16,49.64,43.29,49.67,38.62Z" fill="#66bdd6"/>
      <path id="Path_9" data-name="Path 9" d="M29.74,47c3.58,0,6.48,3.28,6.48,7.36,0,3.81-2.83,7-6.24,7s-6.43-3.24-6.5-7.24C23.41,50.39,26.08,47,29.74,47Z" fill="#8c0001"/>
      <path id="Path_10" data-name="Path 10" d="M24.4,28.06a7,7,0,0,1-1.82,5,4.08,4.08,0,0,1-6.37-.45,7.3,7.3,0,0,1-.24-8c1.13-1.73,2.65-2.6,4.53-2.19,2,.44,3.18,2,3.72,4.25a12.09,12.09,0,0,1,.18,1.39Z" fill="#fbb710"/>
      <path id="Path_11" data-name="Path 11" d="M37.52,23c-1.87.06-3.46-1.88-3.47-3.92a3.76,3.76,0,0,1,3.46-4c1.86,0,3.43,1.8,3.44,4A3.78,3.78,0,0,1,37.52,23Z" fill="#3da84e"/>
    </g>
    <text id="TRAVISIT" transform="translate(11 124.98)" fill="#31292b" font-size="22" font-family="SegoeUI, Segoe UI" letter-spacing="0.002em"><tspan x="0" y="0">TRAVISIT</tspan></text>
  </g>
</svg>
